<?xml version="1.0" encoding="UTF-8" standalone="no"?>
<svg
   fill="#000000"
   width="800px"
   height="800px"
   viewBox="0 0 32 32"
   id="icon"
   version="1.1"
   sodipodi:docname="github-about.svg"
   inkscape:version="1.4 (e7c3feb1, 2024-10-09)"
   xmlns:inkscape="http://www.inkscape.org/namespaces/inkscape"
   xmlns:sodipodi="http://sodipodi.sourceforge.net/DTD/sodipodi-0.dtd"
   xmlns="http://www.w3.org/2000/svg"
   xmlns:svg="http://www.w3.org/2000/svg"
   xmlns:rdf="http://www.w3.org/1999/02/22-rdf-syntax-ns#"
   xmlns:cc="http://creativecommons.org/ns#"
   xmlns:dc="http://purl.org/dc/elements/1.1/">
  <sodipodi:namedview
     id="namedview1"
     pagecolor="#ffffff"
     bordercolor="#000000"
     borderopacity="0.25"
     inkscape:showpageshadow="2"
     inkscape:pageopacity="0.0"
     inkscape:pagecheckerboard="0"
     inkscape:deskcolor="#d1d1d1"
     inkscape:zoom="0.72433407"
     inkscape:cx="392.77457"
     inkscape:cy="318.22333"
     inkscape:window-width="1440"
     inkscape:window-height="784"
     inkscape:window-x="0"
     inkscape:window-y="25"
     inkscape:window-maximized="0"
     inkscape:current-layer="icon" />
  <defs
     id="defs1">
    <style
       id="style1">.cls-1{fill-rule:evenodd;}.cls-2{fill:none;}</style>
  </defs>
  <title
     id="title1">logo--github</title>
  <path
     class="cls-1"
     d="M16,2a14,14,0,0,0-4.43,27.28c.7.13,1-.3,1-.67s0-1.21,0-2.38c-3.89.84-4.71-1.88-4.71-1.88A3.71,3.71,0,0,0,6.24,22.3c-1.27-.86.1-.85.1-.85A2.94,2.94,0,0,1,8.48,22.9a3,3,0,0,0,4.08,1.16,2.93,2.93,0,0,1,.88-1.87c-3.1-.36-6.37-1.56-6.37-6.92a5.4,5.4,0,0,1,1.44-3.76,5,5,0,0,1,.14-3.7s1.17-.38,3.85,1.43a13.3,13.3,0,0,1,7,0c2.67-1.81,3.84-1.43,3.84-1.43a5,5,0,0,1,.14,3.7,5.4,5.4,0,0,1,1.44,3.76c0,5.38-3.27,6.56-6.39,6.91a3.33,3.33,0,0,1,.95,2.59c0,1.87,0,3.38,0,3.84s.25.81,1,.67A14,14,0,0,0,16,2Z"
     style="fill:#7c9395;fill-opacity:1"
     id="path1" />
  <rect
     id="_Transparent_Rectangle_"
     data-name="&lt;Transparent Rectangle&gt;"
     class="cls-2"
     width="32"
     height="32" />
  <metadata
     id="metadata1">
    <rdf:RDF>
      <cc:Work
         rdf:about="">
        <dc:title>logo--github</dc:title>
      </cc:Work>
    </rdf:RDF>
  </metadata>
</svg>
